<svg xmlns="http://www.w3.org/2000/svg" width="306" height="119"><path fill="#1D1D1B" d="M118.167 59.082c0 32.632-26.453 59.083-59.081 59.083C26.454 118.164 0 91.714 0 59.082S26.454 0 59.086 0c32.628 0 59.081 26.449 59.081 59.082m29.984-.729h-4.339l-.977 2.71h-1.408l3.954-10.356h1.195l3.962 10.356h-1.399l-.988-2.71zm-3.926-1.118h3.521l-1.765-4.844-1.756 4.844zm15.863-.362h-2.433v4.188h-1.372V50.706h3.428c1.167 0 2.063.266 2.692.797.628.531.94 1.304.94 2.318 0 .646-.175 1.207-.521 1.686-.349.479-.834.838-1.455 1.074l2.433 4.396v.086h-1.465l-2.247-4.19zm-2.433-1.117h2.099c.68 0 1.219-.176 1.618-.526.4-.352.603-.822.603-1.411 0-.642-.19-1.133-.572-1.476-.382-.342-.935-.515-1.653-.52h-2.092l-.003 3.933zm19.577 2.02c-.128 1.095-.532 1.94-1.213 2.536-.682.597-1.585.894-2.713.894-1.226 0-2.204-.438-2.941-1.315-.737-.876-1.105-2.051-1.105-3.521v-.996c0-.963.174-1.809.518-2.539s.831-1.291 1.461-1.683c.631-.391 1.361-.586 2.19-.586 1.101 0 1.98.307 2.646.921.665.614 1.051 1.464 1.159 2.55h-1.372c-.119-.828-.376-1.427-.772-1.798s-.947-.557-1.658-.557c-.873 0-1.559.323-2.055.969-.495.645-.743 1.563-.743 2.754v1.004c0 1.125.235 2.02.704 2.684.472.665 1.127.997 1.973.997.759 0 1.341-.172 1.746-.515.403-.344.675-.942.808-1.796h1.369v-.003zm14.178 3.286h-1.373v-4.787h-5.221v4.787h-1.365V50.706h1.365v4.453h5.221v-4.453h1.373v10.356zm8.261 0h-1.363V50.706h1.363v10.356zm13.804-9.239h-3.329v9.238h-1.358v-9.238h-3.321v-1.117h8.011l-.003 1.117zm11.744 4.452h-4.486v3.669h5.214v1.117h-6.579V50.706h6.508v1.117h-5.143v3.336h4.486v1.116zm14.413 1.501c-.128 1.095-.53 1.94-1.213 2.536-.68.597-1.585.894-2.713.894-1.224 0-2.204-.438-2.939-1.315-.737-.876-1.105-2.051-1.105-3.521v-.996c0-.963.172-1.809.516-2.539.346-.73.831-1.291 1.462-1.683.632-.391 1.36-.586 2.19-.586 1.101 0 1.981.307 2.646.921.665.614 1.051 1.464 1.157 2.55h-1.372c-.117-.828-.376-1.427-.771-1.798-.396-.371-.949-.557-1.66-.557-.873 0-1.557.323-2.053.969-.495.645-.743 1.563-.743 2.754v1.004c0 1.125.235 2.02.704 2.684.47.665 1.127.997 1.971.997.759 0 1.341-.172 1.746-.515.405-.344.675-.942.809-1.796h1.368v-.003zm13.17-5.953h-3.327v9.238h-1.358v-9.238h-3.321v-1.117h8.01l-.004 1.117zm11.746 4.452h-4.486v3.669h5.214v1.117h-6.579V50.706h6.508v1.117h-5.143v3.336h4.486v1.116zm9.847.171c-1.171-.337-2.023-.751-2.559-1.241a2.377 2.377 0 0 1-.8-1.817c0-.815.325-1.49.979-2.023.651-.533 1.5-.8 2.543-.8.711 0 1.346.137 1.9.412.56.275.989.654 1.295 1.138.308.484.459 1.013.459 1.587h-1.373c0-.629-.197-1.122-.598-1.481-.397-.359-.96-.539-1.686-.539-.676 0-1.198.148-1.575.445s-.565.709-.565 1.236c0 .423.181.78.537 1.072.357.292.967.56 1.827.802.861.242 1.534.509 2.021.801.485.292.849.632 1.081 1.021.234.389.354.847.354 1.373 0 .839-.327 1.512-.981 2.017-.652.506-1.527.758-2.624.758a4.896 4.896 0 0 1-1.99-.408c-.616-.272-1.094-.646-1.428-1.121a2.734 2.734 0 0 1-.501-1.614h1.372c0 .626.231 1.12.693 1.483.463.362 1.08.543 1.854.543.723 0 1.272-.146 1.657-.44.384-.293.576-.693.576-1.201 0-.507-.178-.899-.534-1.177-.355-.282-1-.555-1.934-.826zM145.483 72.731c-1.171-.336-2.023-.75-2.559-1.241a2.378 2.378 0 0 1-.8-1.816c0-.815.325-1.489.979-2.022.65-.533 1.5-.801 2.543-.801.711 0 1.346.139 1.901.414.56.272.989.653 1.295 1.137.308.483.459 1.014.459 1.586h-1.372c0-.627-.198-1.121-.599-1.48-.397-.357-.96-.537-1.686-.537-.675 0-1.198.148-1.575.445s-.565.709-.565 1.234c0 .424.181.781.537 1.072.357.293.967.56 1.827.803.861.242 1.535.51 2.022.801.483.291.847.633 1.08 1.021s.353.846.353 1.37c0 .841-.327 1.513-.981 2.019-.652.506-1.528.758-2.625.758a4.88 4.88 0 0 1-1.99-.408c-.616-.271-1.094-.646-1.428-1.121a2.73 2.73 0 0 1-.501-1.613h1.372c0 .627.231 1.119.693 1.482.463.361 1.08.543 1.854.543.723 0 1.272-.146 1.658-.439.384-.293.576-.692.576-1.201 0-.508-.178-.899-.534-1.178-.354-.283-1-.558-1.934-.828zm15.665 1.907h-4.339l-.977 2.711h-1.408l3.954-10.354h1.195l3.962 10.354h-1.401l-.986-2.711zm-3.926-1.117h3.521l-1.765-4.844-1.756 4.844zm20.025 3.828h-1.373l-5.213-7.979v7.979h-1.373V66.992h1.373l5.229 8.016v-8.016h1.356v10.357zm9.831-4.618c-1.171-.336-2.021-.75-2.557-1.241a2.372 2.372 0 0 1-.801-1.816c0-.815.324-1.489.979-2.022.652-.533 1.5-.801 2.543-.801.711 0 1.346.139 1.902.414.558.272.987.653 1.295 1.137.306.483.459 1.014.459 1.586h-1.373c0-.627-.199-1.121-.6-1.48-.396-.357-.96-.537-1.686-.537-.674 0-1.198.148-1.575.445s-.563.709-.563 1.234c0 .424.179.781.536 1.072.356.293.968.56 1.826.803.861.242 1.534.51 2.021.801.483.291.847.633 1.081 1.021.232.389.352.846.352 1.37 0 .841-.327 1.513-.979 2.019-.654.506-1.529.758-2.624.758a4.896 4.896 0 0 1-1.992-.408c-.616-.271-1.092-.646-1.426-1.121a2.73 2.73 0 0 1-.501-1.613h1.372c0 .627.229 1.119.691 1.482.463.361 1.08.543 1.854.543.721 0 1.271-.146 1.655-.439.386-.293.576-.692.576-1.201 0-.508-.178-.899-.534-1.178-.352-.283-.996-.558-1.931-.828zm-37.49 11.665h-3.33v9.238h-1.356v-9.238h-3.321v-1.117h8.009l-.002 1.117zm11.745 4.451h-4.488v3.67h5.216v1.117h-6.579V83.276h6.508v1.117h-5.145v3.336h4.488v1.118zm10.594.597h-2.433v4.188h-1.372V83.276h3.428c1.167 0 2.063.267 2.692.798.628.53.942 1.305.942 2.317 0 .646-.177 1.207-.522 1.687-.349.479-.834.838-1.455 1.073l2.435 4.396v.086h-1.467l-2.248-4.189zm-2.433-1.116h2.099c.68 0 1.219-.177 1.618-.527.4-.352.603-.821.603-1.409 0-.644-.19-1.134-.572-1.478-.382-.342-.933-.515-1.653-.521h-2.092l-.003 3.935zm15.757 1.116h-2.433v4.188h-1.372V83.276h3.428c1.167 0 2.063.267 2.692.798.628.53.94 1.305.94 2.317 0 .646-.175 1.207-.521 1.687-.351.479-.834.838-1.455 1.073l2.433 4.396v.086h-1.465l-2.247-4.189zm-2.433-1.116h2.099c.678 0 1.217-.177 1.618-.527.4-.352.601-.821.601-1.409 0-.644-.188-1.134-.57-1.478-.382-.342-.935-.515-1.653-.521h-2.092l-.003 3.935zm13.424 5.306h-1.365V83.276h1.365v10.358zm13.804-9.238h-3.329v9.238h-1.356v-9.238h-3.321v-1.117h8.009l-.003 1.117zm13.668 4.395c0 1.015-.171 1.899-.512 2.655-.342.757-.825 1.335-1.451 1.73-.626.398-1.354.598-2.188.598-.815 0-1.539-.198-2.17-.602-.633-.4-1.12-.971-1.471-1.713-.349-.742-.525-1.604-.537-2.578v-.748c0-.994.176-1.875.521-2.639s.836-1.35 1.469-1.754 1.357-.607 2.173-.607c.83 0 1.562.201 2.194.602.632.402 1.12.98 1.462 1.742.341.763.512 1.646.512 2.656l-.002.658zm-1.359-.67c0-1.228-.246-2.17-.739-2.826-.493-.655-1.184-.985-2.07-.985-.861 0-1.542.33-2.038.985-.493.656-.75 1.567-.764 2.733v.763c0 1.188.25 2.125.75 2.806.5.682 1.188 1.021 2.066 1.021.882 0 1.562-.32 2.048-.965.482-.644.73-1.562.747-2.762v-.77zm9.228 5.513h-1.365V83.276h1.365v10.358zm10.665-4.19h-2.433v4.188h-1.372V83.276h3.428c1.167 0 2.063.267 2.692.798.628.53.94 1.305.94 2.317 0 .646-.175 1.207-.521 1.687-.351.479-.834.838-1.455 1.073l2.433 4.396v.086h-1.465l-2.247-4.189zm-2.433-1.116h2.099c.678 0 1.217-.177 1.618-.527.4-.352.601-.821.601-1.409 0-.644-.188-1.134-.57-1.478-.383-.342-.935-.515-1.653-.521h-2.092l-.003 3.935zm17.813.519h-4.486v3.67h5.214v1.117h-6.579V83.276h6.508v1.117h-5.143v3.336h4.486v1.118z"/><path fill="#454443" d="M59.084 16.912l56.451 59.651s-10.931 39.312-53.174 41.603L16.914 59.082h42.17v-42.17z"/><path fill="#FFF" d="M59.084 59.082l6.551-6.626-6.551-35.544z"/><path fill="#FFF" d="M65.018 49.089l13.571-11.094-9.034 15.06-3.92-.599zm-5.934 9.993l6.625 6.552 35.544-6.552zm9.991 5.933l11.096 13.57-15.061-9.033.599-3.918zm-9.991-5.933l-6.553 6.625 6.553 35.544zm-5.933 9.992L39.58 80.167l9.035-15.059 3.916.599zm5.933-9.992l-6.625-6.554-35.545 6.554z"/><path fill="#FFF" d="M49.092 53.148L37.998 39.575l15.06 9.036-.599 3.917z"/><path fill="#454443" d="M101.253 59.082l14.805 15.696-.572 1.951-17.454-17.052z"/><path fill="#2D2D2B" d="M16.914 59.082l31.697 6.026-2.247 3.746zM39.58 80.166l14.432-6.42-.861-4.677m11.957.479l4.103 2.465-10.129 29.494zm3.967-4.533l2.728 3.334 29.45-9.268zm.478-11.958l9.036-15.06-4.948 15.664z"/><path d="M150.23 37.79h-4.312l-.753 2.438h-3.358l4.783-13.046h2.957l4.821 13.046h-3.378l-.76-2.438zm-3.558-2.428h2.807l-1.406-4.524-1.401 4.524zm16.092 1.398c0-.46-.162-.818-.488-1.075-.325-.257-.897-.522-1.716-.797-.818-.275-1.487-.541-2.009-.798-1.688-.83-2.533-1.971-2.533-3.423 0-.723.21-1.36.632-1.913.421-.552 1.017-.982 1.787-1.29.77-.308 1.637-.461 2.599-.461.938 0 1.778.167 2.521.502.742.334 1.32.811 1.732 1.429.412.618.618 1.324.618 2.119h-3.136c0-.532-.163-.944-.488-1.236-.326-.293-.767-.439-1.322-.439-.562 0-1.005.124-1.33.372-.324.248-.486.562-.486.945 0 .334.179.638.537.909.356.271.987.553 1.891.842.902.29 1.643.603 2.223.937 1.409.812 2.114 1.933 2.114 3.36 0 1.141-.431 2.037-1.29 2.688-.86.651-2.04.977-3.539.977-1.058 0-2.015-.189-2.872-.568-.855-.38-1.502-.899-1.936-1.56-.435-.66-.649-1.42-.649-2.28h3.154c0 .699.181 1.214.542 1.546.361.331.948.497 1.761.497.521 0 .931-.112 1.231-.336s.452-.541.452-.947zm15.732-7.15h-3.915v10.617h-3.146V29.61h-3.846v-2.429h10.904l.003 2.429zm10.133 5.08h-4.943v3.118h5.842v2.419h-8.987V27.182h9.005v2.429h-5.857v2.75h4.943l-.003 2.329zm7.74.923h-1.702v4.614h-3.146V27.182h5.134c1.547 0 2.757.344 3.629 1.029.872.687 1.309 1.656 1.309 2.909 0 .907-.184 1.658-.552 2.255-.367.597-.94 1.08-1.725 1.45l2.724 5.268v.135h-3.368l-2.303-4.615zm-1.702-2.419h1.988c.598 0 1.047-.157 1.349-.472.304-.315.453-.753.453-1.316 0-.563-.15-1.004-.457-1.324-.305-.32-.753-.481-1.345-.481h-1.988v3.593zm14.843 7.034V27.182h4.688c1.678 0 2.955.308 3.83.923s1.312 1.509 1.312 2.68c0 .675-.153 1.251-.466 1.729-.311.479-.768.831-1.371 1.058.683.179 1.204.514 1.568 1.003.364.49.546 1.088.546 1.792 0 1.278-.404 2.239-1.214 2.881-.812.643-2.009.97-3.597.981l-5.296-.001zm3.146-7.608h1.64c.688-.006 1.178-.132 1.471-.377.293-.246.438-.608.438-1.088 0-.551-.158-.947-.475-1.19-.317-.242-.828-.364-1.532-.364h-1.541v3.019h-.001zm0 2.062v3.127h2.061c.567 0 1.004-.13 1.31-.391.305-.26.457-.625.457-1.097 0-1.088-.54-1.634-1.621-1.64l-2.207.001zm14.271.931h-1.7v4.614h-3.146V27.182h5.134c1.547 0 2.759.344 3.629 1.029.872.687 1.311 1.656 1.311 2.909 0 .907-.186 1.658-.552 2.255-.367.597-.942 1.08-1.727 1.45l2.726 5.268v.135h-3.368l-2.307-4.615zm-1.701-2.419h1.986c.6 0 1.047-.157 1.351-.472.302-.315.453-.753.453-1.316 0-.563-.152-1.004-.457-1.324-.307-.32-.753-.481-1.347-.481h-1.986v3.593zm17.649 1.496h-4.944v3.118h5.843v2.419h-8.987V27.182h9.005v2.429h-5.857v2.75h4.943l-.003 2.329zm13.135-5.08h-3.914v10.617h-3.146V29.61h-3.844v-2.429h10.902l.002 2.429zm8.497 8.18h-4.31l-.753 2.438h-3.36l4.785-13.046h2.956l4.821 13.046h-3.378l-.761-2.438zm-3.558-2.428h2.805l-1.404-4.524-1.401 4.524zm19.951 3.252c-.484.538-1.192.971-2.124 1.3-.934.328-1.953.492-3.064.492-1.708 0-3.071-.522-4.095-1.567-1.021-1.046-1.567-2.5-1.639-4.363l-.012-1.129c0-1.284.229-2.406.684-3.365.453-.958 1.104-1.696 1.948-2.213.846-.517 1.821-.774 2.935-.774 1.625 0 2.887.371 3.785 1.115.897.743 1.423 1.854 1.572 3.328h-3.028c-.107-.729-.34-1.248-.698-1.559-.357-.311-.866-.466-1.521-.466-.788 0-1.397.334-1.828 1.003-.432.669-.647 1.625-.653 2.867v.789c0 1.302.222 2.28.667 2.934.445.654 1.146.981 2.102.981.817 0 1.429-.182 1.827-.547v-2.024h-2.186v-2.159h5.331l-.003 5.357zm13.456 1.614h-3.127l-4.623-8.118v8.118h-3.146V27.182h3.146l4.612 8.118v-8.118h3.138v13.046zm10.795-5.538h-4.945v3.118h5.842v2.419h-8.985V27.182h9.005v2.429h-5.859v2.75h4.945l-.003 2.329z" fill="#1D1D1B"/></svg>