<?xml version="1.0" encoding="utf-8"?>
<!-- Generator: Adobe Illustrator 16.0.0, SVG Export Plug-In . SVG Version: 6.00 Build 0)  -->
<!DOCTYPE svg PUBLIC "-//W3C//DTD SVG 1.1//EN" "http://www.w3.org/Graphics/SVG/1.1/DTD/svg11.dtd">
<svg version="1.1" id="Calque_1" xmlns="http://www.w3.org/2000/svg" xmlns:xlink="http://www.w3.org/1999/xlink" x="0px" y="0px"
	 width="306px" height="119px" viewBox="0 0 306 119" enable-background="new 0 0 306 119" xml:space="preserve">
<path fill="#1D1D1B" d="M118.167,59.082c0,32.632-26.453,59.083-59.081,59.083C26.454,118.164,0,91.714,0,59.082S26.454,0,59.086,0
	C91.714,0,118.167,26.449,118.167,59.082"/>
<g>
	<path fill="#1D1D1B" d="M148.151,58.353h-4.339l-0.977,2.71h-1.408l3.954-10.356h1.195l3.962,10.356h-1.399L148.151,58.353z
		 M144.225,57.235h3.521l-1.765-4.844L144.225,57.235z"/>
	<path fill="#1D1D1B" d="M160.088,56.873h-2.433v4.188h-1.372V50.706h3.428c1.167,0,2.063,0.266,2.692,0.797
		c0.628,0.531,0.94,1.304,0.94,2.318c0,0.646-0.175,1.207-0.521,1.686c-0.349,0.479-0.834,0.838-1.455,1.074l2.433,4.396v0.086
		h-1.465L160.088,56.873z M157.655,55.756h2.099c0.68,0,1.219-0.176,1.618-0.526c0.4-0.352,0.603-0.822,0.603-1.411
		c0-0.642-0.19-1.133-0.572-1.476c-0.382-0.342-0.935-0.515-1.653-0.52h-2.092L157.655,55.756L157.655,55.756z"/>
	<path fill="#1D1D1B" d="M177.232,57.776c-0.128,1.095-0.532,1.94-1.213,2.536c-0.682,0.597-1.585,0.894-2.713,0.894
		c-1.226,0-2.204-0.438-2.941-1.315c-0.737-0.876-1.105-2.051-1.105-3.521v-0.996c0-0.963,0.174-1.809,0.518-2.539
		s0.831-1.291,1.461-1.683c0.631-0.391,1.361-0.586,2.19-0.586c1.101,0,1.98,0.307,2.646,0.921c0.665,0.614,1.051,1.464,1.159,2.55
		h-1.372c-0.119-0.828-0.376-1.427-0.772-1.798c-0.396-0.371-0.947-0.557-1.658-0.557c-0.873,0-1.559,0.323-2.055,0.969
		c-0.495,0.645-0.743,1.563-0.743,2.754v1.004c0,1.125,0.235,2.02,0.704,2.684c0.472,0.665,1.127,0.997,1.973,0.997
		c0.759,0,1.341-0.172,1.746-0.515c0.403-0.344,0.675-0.942,0.808-1.796h1.369V57.776z"/>
	<path fill="#1D1D1B" d="M191.41,61.062h-1.373v-4.787h-5.221v4.787h-1.365V50.706h1.365v4.453h5.221v-4.453h1.373V61.062z"/>
	<path fill="#1D1D1B" d="M199.671,61.062h-1.363V50.706h1.363V61.062z"/>
	<path fill="#1D1D1B" d="M213.475,51.823h-3.329v9.238h-1.358v-9.238h-3.321v-1.117h8.011L213.475,51.823L213.475,51.823z"/>
	<path fill="#1D1D1B" d="M225.219,56.275h-4.486v3.669h5.214v1.117h-6.579V50.706h6.508v1.117h-5.143v3.336h4.486V56.275z"/>
	<path fill="#1D1D1B" d="M239.632,57.776c-0.128,1.095-0.53,1.94-1.213,2.536c-0.68,0.597-1.585,0.894-2.713,0.894
		c-1.224,0-2.204-0.438-2.939-1.315c-0.737-0.876-1.105-2.051-1.105-3.521v-0.996c0-0.963,0.172-1.809,0.516-2.539
		c0.346-0.73,0.831-1.291,1.462-1.683c0.632-0.391,1.36-0.586,2.19-0.586c1.101,0,1.981,0.307,2.646,0.921
		c0.665,0.614,1.051,1.464,1.157,2.55h-1.372c-0.117-0.828-0.376-1.427-0.771-1.798c-0.396-0.371-0.949-0.557-1.66-0.557
		c-0.873,0-1.557,0.323-2.053,0.969c-0.495,0.645-0.743,1.563-0.743,2.754v1.004c0,1.125,0.235,2.02,0.704,2.684
		c0.47,0.665,1.127,0.997,1.971,0.997c0.759,0,1.341-0.172,1.746-0.515c0.405-0.344,0.675-0.942,0.809-1.796h1.368V57.776z"/>
	<path fill="#1D1D1B" d="M252.802,51.823h-3.327v9.238h-1.358v-9.238h-3.321v-1.117h8.01L252.802,51.823L252.802,51.823z"/>
	<path fill="#1D1D1B" d="M264.548,56.275h-4.486v3.669h5.214v1.117h-6.579V50.706h6.508v1.117h-5.143v3.336h4.486V56.275z"/>
	<path fill="#1D1D1B" d="M274.395,56.446c-1.171-0.337-2.023-0.751-2.559-1.241c-0.532-0.491-0.8-1.097-0.8-1.817
		c0-0.815,0.325-1.49,0.979-2.023c0.651-0.533,1.5-0.8,2.543-0.8c0.711,0,1.346,0.137,1.9,0.412c0.56,0.275,0.989,0.654,1.295,1.138
		c0.308,0.484,0.459,1.013,0.459,1.587h-1.373c0-0.629-0.197-1.122-0.598-1.481c-0.397-0.359-0.96-0.539-1.686-0.539
		c-0.676,0-1.198,0.148-1.575,0.445s-0.565,0.709-0.565,1.236c0,0.423,0.181,0.78,0.537,1.072c0.357,0.292,0.967,0.56,1.827,0.802
		c0.861,0.242,1.534,0.509,2.021,0.801c0.485,0.292,0.849,0.632,1.081,1.021c0.234,0.389,0.354,0.847,0.354,1.373
		c0,0.839-0.327,1.512-0.981,2.017c-0.652,0.506-1.527,0.758-2.624,0.758c-0.712,0-1.375-0.138-1.99-0.408
		c-0.616-0.272-1.094-0.646-1.428-1.121c-0.334-0.474-0.501-1.012-0.501-1.614h1.372c0,0.626,0.231,1.12,0.693,1.483
		c0.463,0.362,1.08,0.543,1.854,0.543c0.723,0,1.272-0.146,1.657-0.44c0.384-0.293,0.576-0.693,0.576-1.201
		c0-0.507-0.178-0.899-0.534-1.177C275.974,56.99,275.329,56.717,274.395,56.446z"/>
</g>
<g>
	<path fill="#1D1D1B" d="M145.483,72.731c-1.171-0.336-2.023-0.75-2.559-1.241c-0.531-0.49-0.8-1.097-0.8-1.816
		c0-0.815,0.325-1.489,0.979-2.022c0.65-0.533,1.5-0.801,2.543-0.801c0.711,0,1.346,0.139,1.901,0.414
		c0.56,0.272,0.989,0.653,1.295,1.137c0.308,0.483,0.459,1.014,0.459,1.586h-1.372c0-0.627-0.198-1.121-0.599-1.48
		c-0.397-0.357-0.96-0.537-1.686-0.537c-0.675,0-1.198,0.148-1.575,0.445s-0.565,0.709-0.565,1.234c0,0.424,0.181,0.781,0.537,1.072
		c0.357,0.293,0.967,0.56,1.827,0.803c0.861,0.242,1.535,0.51,2.022,0.801c0.483,0.291,0.847,0.633,1.08,1.021
		s0.353,0.846,0.353,1.37c0,0.841-0.327,1.513-0.981,2.019c-0.652,0.506-1.528,0.758-2.625,0.758c-0.712,0-1.375-0.137-1.99-0.408
		c-0.616-0.271-1.094-0.646-1.428-1.121c-0.334-0.473-0.501-1.012-0.501-1.613h1.372c0,0.627,0.231,1.119,0.693,1.482
		c0.463,0.361,1.08,0.543,1.854,0.543c0.723,0,1.272-0.146,1.658-0.439c0.384-0.293,0.576-0.692,0.576-1.201
		c0-0.508-0.178-0.899-0.534-1.178C147.063,73.276,146.417,73.001,145.483,72.731z"/>
	<path fill="#1D1D1B" d="M161.148,74.638h-4.339l-0.977,2.711h-1.408l3.954-10.354h1.195l3.962,10.354h-1.401L161.148,74.638z
		 M157.222,73.521h3.521l-1.765-4.844L157.222,73.521z"/>
	<path fill="#1D1D1B" d="M177.247,77.349h-1.373l-5.213-7.979v7.979h-1.373V66.992h1.373l5.229,8.016v-8.016h1.356V77.349z"/>
	<path fill="#1D1D1B" d="M187.078,72.731c-1.171-0.336-2.021-0.75-2.557-1.241c-0.533-0.49-0.801-1.097-0.801-1.816
		c0-0.815,0.324-1.489,0.979-2.022c0.652-0.533,1.5-0.801,2.543-0.801c0.711,0,1.346,0.139,1.902,0.414
		c0.558,0.272,0.987,0.653,1.295,1.137c0.306,0.483,0.459,1.014,0.459,1.586h-1.373c0-0.627-0.199-1.121-0.6-1.48
		c-0.396-0.357-0.96-0.537-1.686-0.537c-0.674,0-1.198,0.148-1.575,0.445s-0.563,0.709-0.563,1.234c0,0.424,0.179,0.781,0.536,1.072
		c0.356,0.293,0.968,0.56,1.826,0.803c0.861,0.242,1.534,0.51,2.021,0.801c0.483,0.291,0.847,0.633,1.081,1.021
		c0.232,0.389,0.352,0.846,0.352,1.37c0,0.841-0.327,1.513-0.979,2.019c-0.654,0.506-1.529,0.758-2.624,0.758
		c-0.712,0-1.375-0.137-1.992-0.408c-0.616-0.271-1.092-0.646-1.426-1.121c-0.334-0.473-0.501-1.012-0.501-1.613h1.372
		c0,0.627,0.229,1.119,0.691,1.482c0.463,0.361,1.08,0.543,1.854,0.543c0.721,0,1.271-0.146,1.655-0.439
		c0.386-0.293,0.576-0.692,0.576-1.201c0-0.508-0.178-0.899-0.534-1.178C188.657,73.276,188.013,73.001,187.078,72.731z"/>
</g>
<g>
	<path fill="#1D1D1B" d="M149.588,84.396h-3.33v9.238h-1.356v-9.238h-3.321v-1.117h8.009L149.588,84.396L149.588,84.396z"/>
	<path fill="#1D1D1B" d="M161.333,88.847h-4.488v3.67h5.216v1.117h-6.579V83.276h6.508v1.117h-5.145v3.336h4.488V88.847z"/>
	<path fill="#1D1D1B" d="M171.927,89.444h-2.433v4.188h-1.372V83.276h3.428c1.167,0,2.063,0.267,2.692,0.798
		c0.628,0.53,0.942,1.305,0.942,2.317c0,0.646-0.177,1.207-0.522,1.687c-0.349,0.479-0.834,0.838-1.455,1.073l2.435,4.396v0.086
		h-1.467L171.927,89.444z M169.494,88.328h2.099c0.68,0,1.219-0.177,1.618-0.527c0.4-0.352,0.603-0.821,0.603-1.409
		c0-0.644-0.19-1.134-0.572-1.478c-0.382-0.342-0.933-0.515-1.653-0.521h-2.092L169.494,88.328L169.494,88.328z"/>
	<path fill="#1D1D1B" d="M185.251,89.444h-2.433v4.188h-1.372V83.276h3.428c1.167,0,2.063,0.267,2.692,0.798
		c0.628,0.53,0.94,1.305,0.94,2.317c0,0.646-0.175,1.207-0.521,1.687c-0.351,0.479-0.834,0.838-1.455,1.073l2.433,4.396v0.086
		h-1.465L185.251,89.444z M182.818,88.328h2.099c0.678,0,1.217-0.177,1.618-0.527c0.4-0.352,0.601-0.821,0.601-1.409
		c0-0.644-0.188-1.134-0.57-1.478c-0.382-0.342-0.935-0.515-1.653-0.521h-2.092L182.818,88.328L182.818,88.328z"/>
	<path fill="#1D1D1B" d="M196.242,93.634h-1.365V83.276h1.365V93.634z"/>
	<path fill="#1D1D1B" d="M210.046,84.396h-3.329v9.238h-1.356v-9.238h-3.321v-1.117h8.009L210.046,84.396L210.046,84.396z"/>
	<path fill="#1D1D1B" d="M223.714,88.791c0,1.015-0.171,1.899-0.512,2.655c-0.342,0.757-0.825,1.335-1.451,1.73
		c-0.626,0.398-1.354,0.598-2.188,0.598c-0.815,0-1.539-0.198-2.17-0.602c-0.633-0.4-1.12-0.971-1.471-1.713
		c-0.349-0.742-0.525-1.604-0.537-2.578v-0.748c0-0.994,0.176-1.875,0.521-2.639s0.836-1.35,1.469-1.754s1.357-0.607,2.173-0.607
		c0.83,0,1.562,0.201,2.194,0.602c0.632,0.402,1.12,0.98,1.462,1.742c0.341,0.763,0.512,1.646,0.512,2.656L223.714,88.791
		L223.714,88.791z M222.355,88.121c0-1.228-0.246-2.17-0.739-2.826c-0.493-0.655-1.184-0.985-2.07-0.985
		c-0.861,0-1.542,0.33-2.038,0.985c-0.493,0.656-0.75,1.567-0.764,2.733v0.763c0,1.188,0.25,2.125,0.75,2.806
		c0.5,0.682,1.188,1.021,2.066,1.021c0.882,0,1.562-0.32,2.048-0.965c0.482-0.644,0.73-1.562,0.747-2.762V88.121z"/>
	<path fill="#1D1D1B" d="M231.583,93.634h-1.365V83.276h1.365V93.634z"/>
	<path fill="#1D1D1B" d="M242.248,89.444h-2.433v4.188h-1.372V83.276h3.428c1.167,0,2.063,0.267,2.692,0.798
		c0.628,0.53,0.94,1.305,0.94,2.317c0,0.646-0.175,1.207-0.521,1.687c-0.351,0.479-0.834,0.838-1.455,1.073l2.433,4.396v0.086
		h-1.465L242.248,89.444z M239.815,88.328h2.099c0.678,0,1.217-0.177,1.618-0.527c0.4-0.352,0.601-0.821,0.601-1.409
		c0-0.644-0.188-1.134-0.57-1.478c-0.383-0.342-0.935-0.515-1.653-0.521h-2.092L239.815,88.328L239.815,88.328z"/>
	<path fill="#1D1D1B" d="M257.628,88.847h-4.486v3.67h5.214v1.117h-6.579V83.276h6.508v1.117h-5.143v3.336h4.486V88.847z"/>
</g>
<path fill="#454443" d="M59.084,16.912l56.451,59.651c0,0-10.931,39.312-53.174,41.603L16.914,59.082h42.17V16.912z"/>
<polygon fill="#FFFFFF" points="59.084,59.082 65.635,52.456 59.084,16.912 "/>
<polygon fill="#FFFFFF" points="65.018,49.089 78.589,37.995 69.555,53.055 65.635,52.456 "/>
<polygon fill="#FFFFFF" points="59.084,59.082 65.709,65.634 101.253,59.082 "/>
<polygon fill="#FFFFFF" points="69.075,65.015 80.171,78.585 65.11,69.552 65.709,65.634 "/>
<polygon fill="#FFFFFF" points="59.084,59.082 52.531,65.707 59.084,101.251 "/>
<polygon fill="#FFFFFF" points="53.151,69.074 39.58,80.167 48.615,65.108 52.531,65.707 "/>
<polygon fill="#FFFFFF" points="59.084,59.082 52.459,52.528 16.914,59.082 "/>
<polygon fill="#FFFFFF" points="49.092,53.148 37.998,39.575 53.058,48.611 52.459,52.528 "/>
<polygon fill="#454443" points="101.253,59.082 116.058,74.778 115.486,76.729 98.032,59.677 "/>
<polygon fill="#2D2D2B" points="16.914,59.082 48.611,65.108 46.364,68.854 "/>
<polyline fill="#2D2D2B" points="39.58,80.166 54.012,73.746 53.151,69.069 "/>
<polygon fill="#2D2D2B" points="65.108,69.548 69.211,72.013 59.082,101.507 "/>
<polygon fill="#2D2D2B" points="69.075,65.015 71.803,68.349 101.253,59.081 "/>
<polygon fill="#2D2D2B" points="69.553,53.057 78.589,37.997 73.641,53.661 "/>
<g>
	<path fill="#1D1D1B" d="M150.23,37.79h-4.312l-0.753,2.438h-3.358l4.783-13.046h2.957l4.821,13.046h-3.378L150.23,37.79z
		 M146.672,35.362h2.807l-1.406-4.524L146.672,35.362z"/>
	<path fill="#1D1D1B" d="M162.764,36.76c0-0.46-0.162-0.818-0.488-1.075c-0.325-0.257-0.897-0.522-1.716-0.797
		c-0.818-0.275-1.487-0.541-2.009-0.798c-1.688-0.83-2.533-1.971-2.533-3.423c0-0.723,0.21-1.36,0.632-1.913
		c0.421-0.552,1.017-0.982,1.787-1.29c0.77-0.308,1.637-0.461,2.599-0.461c0.938,0,1.778,0.167,2.521,0.502
		c0.742,0.334,1.32,0.811,1.732,1.429c0.412,0.618,0.618,1.324,0.618,2.119h-3.136c0-0.532-0.163-0.944-0.488-1.236
		c-0.326-0.293-0.767-0.439-1.322-0.439c-0.562,0-1.005,0.124-1.33,0.372c-0.324,0.248-0.486,0.562-0.486,0.945
		c0,0.334,0.179,0.638,0.537,0.909c0.356,0.271,0.987,0.553,1.891,0.842c0.902,0.29,1.643,0.603,2.223,0.937
		c1.409,0.812,2.114,1.933,2.114,3.36c0,1.141-0.431,2.037-1.29,2.688c-0.86,0.651-2.04,0.977-3.539,0.977
		c-1.058,0-2.015-0.189-2.872-0.568c-0.855-0.38-1.502-0.899-1.936-1.56c-0.435-0.66-0.649-1.42-0.649-2.28h3.154
		c0,0.699,0.181,1.214,0.542,1.546c0.361,0.331,0.948,0.497,1.761,0.497c0.521,0,0.931-0.112,1.231-0.336
		S162.764,37.166,162.764,36.76z"/>
	<path fill="#1D1D1B" d="M178.496,29.61h-3.915v10.617h-3.146V29.61h-3.846v-2.429h10.904L178.496,29.61L178.496,29.61z"/>
	<path fill="#1D1D1B" d="M188.629,34.69h-4.943v3.118h5.842v2.419h-8.987V27.182h9.005v2.429h-5.857v2.75h4.943L188.629,34.69
		L188.629,34.69z"/>
	<path fill="#1D1D1B" d="M196.369,35.613h-1.702v4.614h-3.146V27.182h5.134c1.547,0,2.757,0.344,3.629,1.029
		c0.872,0.687,1.309,1.656,1.309,2.909c0,0.907-0.184,1.658-0.552,2.255c-0.367,0.597-0.94,1.08-1.725,1.45l2.724,5.268v0.135
		h-3.368L196.369,35.613z M194.667,33.194h1.988c0.598,0,1.047-0.157,1.349-0.472c0.304-0.315,0.453-0.753,0.453-1.316
		c0-0.563-0.15-1.004-0.457-1.324c-0.305-0.32-0.753-0.481-1.345-0.481h-1.988V33.194z"/>
	<path fill="#1D1D1B" d="M209.51,40.228V27.182h4.688c1.678,0,2.955,0.308,3.83,0.923s1.312,1.509,1.312,2.68
		c0,0.675-0.153,1.251-0.466,1.729c-0.311,0.479-0.768,0.831-1.371,1.058c0.683,0.179,1.204,0.514,1.568,1.003
		c0.364,0.49,0.546,1.088,0.546,1.792c0,1.278-0.404,2.239-1.214,2.881c-0.812,0.643-2.009,0.97-3.597,0.981L209.51,40.228
		L209.51,40.228z M212.656,32.62h1.64c0.688-0.006,1.178-0.132,1.471-0.377c0.293-0.246,0.438-0.608,0.438-1.088
		c0-0.551-0.158-0.947-0.475-1.19c-0.317-0.242-0.828-0.364-1.532-0.364h-1.541V32.62L212.656,32.62z M212.656,34.682v3.127h2.061
		c0.567,0,1.004-0.13,1.31-0.391c0.305-0.26,0.457-0.625,0.457-1.097c0-1.088-0.54-1.634-1.621-1.64L212.656,34.682L212.656,34.682z
		"/>
	<path fill="#1D1D1B" d="M226.927,35.613h-1.7v4.614h-3.146V27.182h5.134c1.547,0,2.759,0.344,3.629,1.029
		c0.872,0.687,1.311,1.656,1.311,2.909c0,0.907-0.186,1.658-0.552,2.255c-0.367,0.597-0.942,1.08-1.727,1.45l2.726,5.268v0.135
		h-3.368L226.927,35.613z M225.226,33.194h1.986c0.6,0,1.047-0.157,1.351-0.472c0.302-0.315,0.453-0.753,0.453-1.316
		c0-0.563-0.152-1.004-0.457-1.324c-0.307-0.32-0.753-0.481-1.347-0.481h-1.986V33.194z"/>
	<path fill="#1D1D1B" d="M242.875,34.69h-4.944v3.118h5.843v2.419h-8.987V27.182h9.005v2.429h-5.857v2.75h4.943L242.875,34.69
		L242.875,34.69z"/>
	<path fill="#1D1D1B" d="M256.01,29.61h-3.914v10.617h-3.146V29.61h-3.844v-2.429h10.902L256.01,29.61L256.01,29.61z"/>
	<path fill="#1D1D1B" d="M264.507,37.79h-4.31l-0.753,2.438h-3.36l4.785-13.046h2.956l4.821,13.046h-3.378L264.507,37.79z
		 M260.949,35.362h2.805l-1.404-4.524L260.949,35.362z"/>
	<path fill="#1D1D1B" d="M280.9,38.614c-0.484,0.538-1.192,0.971-2.124,1.3c-0.934,0.328-1.953,0.492-3.064,0.492
		c-1.708,0-3.071-0.522-4.095-1.567c-1.021-1.046-1.567-2.5-1.639-4.363l-0.012-1.129c0-1.284,0.229-2.406,0.684-3.365
		c0.453-0.958,1.104-1.696,1.948-2.213c0.846-0.517,1.821-0.774,2.935-0.774c1.625,0,2.887,0.371,3.785,1.115
		c0.897,0.743,1.423,1.854,1.572,3.328h-3.028c-0.107-0.729-0.34-1.248-0.698-1.559c-0.357-0.311-0.866-0.466-1.521-0.466
		c-0.788,0-1.397,0.334-1.828,1.003c-0.432,0.669-0.647,1.625-0.653,2.867v0.789c0,1.302,0.222,2.28,0.667,2.934
		c0.445,0.654,1.146,0.981,2.102,0.981c0.817,0,1.429-0.182,1.827-0.547v-2.024h-2.186v-2.159h5.331L280.9,38.614L280.9,38.614z"/>
	<path fill="#1D1D1B" d="M294.356,40.228h-3.127l-4.623-8.118v8.118h-3.146V27.182h3.146l4.612,8.118v-8.118h3.138V40.228z"/>
	<path fill="#1D1D1B" d="M305.151,34.69h-4.945v3.118h5.842v2.419h-8.985V27.182h9.005v2.429h-5.859v2.75h4.945L305.151,34.69
		L305.151,34.69z"/>
</g>
</svg>
