<svg version="1" xmlns="http://www.w3.org/2000/svg" width="480" height="480" viewBox="0 0 360.000000 360.000000"><path d="M170.8 8.5c-.2.1-3.8.5-8 .8-18.5 1.5-41.6 8-59.3 16.9-34.6 17.3-61.5 44.3-78 78.3C13.4 129.5 7.6 155 7.9 182c.6 55.3 27.1 105.8 72.6 138.5 18.8 13.5 48.2 25.7 70 29 12.7 2 18.2 2.3 34.5 2 28.6-.5 49-5.4 73.3-17.8 8.4-4.2 22-12.7 23.7-14.6.3-.3 2.3-1.9 4.5-3.6 6.2-4.5 22.5-21.4 28.8-29.8 14.8-19.7 24.5-39 30-60.3 2.4-9 3.3-13.9 5.2-27.4 1.1-7.2.8-29.7-.5-39.5-9-69.8-59.5-127.2-127.5-144.6-9.9-2.6-10-2.6-19.8-3.9-6.9-1-31.2-2.1-31.9-1.5z"/></svg>